<svg xmlns="http://www.w3.org/2000/svg" width="20" height="16">
  <path fill-rule="evenodd" clip-rule="evenodd" d="M2.60319 3.46514C2.3535 2.48976 1.60028 1.7538 0.666626 1.57295L0.878193 0.333252C2.25995 0.600907 3.37468 1.6901 3.74421 3.13361L4.01119 4.17655H19.3333L17.344 10.5348C17.0622 11.4352 16.2713 12.0425 15.3804 12.0425H7.50892C5.90891 12.0425 4.50685 10.9016 4.08586 9.25704L2.60319 3.46514ZM4.33374 5.43657L5.22688 8.9255C5.50754 10.0219 6.44225 10.7825 7.50892 10.7825H15.3804C15.7622 10.7825 16.1012 10.5222 16.2219 10.1363L17.6924 5.43657H4.33374Z"/>
  <path d="M15.5235 14.5976C15.5235 15.2419 15.036 15.7642 14.4346 15.7642C13.8332 15.7642 13.3457 15.2419 13.3457 14.5976C13.3457 13.9532 13.8332 13.4309 14.4346 13.4309C15.036 13.4309 15.5235 13.9532 15.5235 14.5976Z"/>
  <path d="M9.32292 14.5976C9.32292 15.2419 8.83541 15.7642 8.23403 15.7642C7.63265 15.7642 7.14514 15.2419 7.14514 14.5976C7.14514 13.9532 7.63265 13.4309 8.23403 13.4309C8.83541 13.4309 9.32292 13.9532 9.32292 14.5976Z"/>
</svg>