<svg width="29" height="28" viewBox="0 0 29 28" fill="none" xmlns="http://www.w3.org/2000/svg">
<path fill-rule="evenodd" clip-rule="evenodd" d="M3.74439 7.65125C3.39482 6.28572 2.34032 5.25537 1.0332 5.00217L1.3294 3.2666C3.26386 3.64132 4.82448 5.16618 5.34182 7.1871L5.71559 8.64722H27.1665L24.3815 17.5487C23.9871 18.8093 22.8798 19.6595 21.6326 19.6595H10.6124C8.3724 19.6595 6.40951 18.0623 5.82013 15.7599L3.74439 7.65125ZM6.16717 10.4112L7.41756 15.2958C7.81048 16.8307 9.11907 17.8955 10.6124 17.8955H21.6326C22.1671 17.8955 22.6416 17.5311 22.8107 16.9909L24.8693 10.4112H6.16717Z" fill="#9D8DF1"/>
<path d="M21.8331 23.2368C21.8331 24.1389 21.1506 24.8702 20.3086 24.8702C19.4667 24.8702 18.7842 24.1389 18.7842 23.2368C18.7842 22.3348 19.4667 21.6035 20.3086 21.6035C21.1506 21.6035 21.8331 22.3348 21.8331 23.2368Z" fill="#9D8DF1"/>
<path d="M13.1519 23.2368C13.1519 24.1389 12.4694 24.8702 11.6275 24.8702C10.7855 24.8702 10.103 24.1389 10.103 23.2368C10.103 22.3348 10.7855 21.6035 11.6275 21.6035C12.4694 21.6035 13.1519 22.3348 13.1519 23.2368Z" fill="#9D8DF1"/>
</svg>
