<svg width="60" height="60" viewBox="0 0 60 60" fill="none" xmlns="http://www.w3.org/2000/svg">
<path fill-rule="evenodd" clip-rule="evenodd" d="M31 41.25H34.375C43.005 41.25 50 34.255 50 25.625C50 16.995 43.005 10 34.375 10H25.625C16.995 10 10 16.995 10 25.625C10 35.7 15.745 41.725 21.7875 45.3575C24.82 47.18 27.875 48.3575 30.1825 49.0788C30.4675 49.1675 30.7412 49.25 31 49.325V41.25ZM33.5 52.5C33.5 52.5 32.545 52.3387 31 51.9212C24.4875 50.1562 7.5 43.8125 7.5 25.625C7.5 15.615 15.615 7.5 25.625 7.5H34.375C44.385 7.5 52.5 15.615 52.5 25.625C52.5 35.635 44.385 43.75 34.375 43.75H33.5V52.5Z" fill="black"/>
</svg>
