<svg width="52" height="50" viewBox="0 0 52 50" fill="#9d8df1" xmlns="http://www.w3.org/2000/svg">
    <path
        d="M51.6172 18.9453C51.4236 18.3306 51.0506 17.7878 50.546 17.3869C50.0415 16.9859 49.4285 16.7451 48.7859 16.6953L34.85 15.4906C34.7657 15.4823 34.6853 15.4514 34.6172 15.401C34.5491 15.3507 34.4959 15.2828 34.4633 15.2047L29.0188 2.22967C28.7666 1.63777 28.346 1.13306 27.8093 0.7783C27.2726 0.423545 26.6434 0.234406 26 0.234406C25.3566 0.234406 24.7275 0.423545 24.1907 0.7783C23.654 1.13306 23.2334 1.63777 22.9813 2.22967L17.5367 15.2047C17.5041 15.2828 17.4509 15.3507 17.3828 15.401C17.3147 15.4514 17.2343 15.4823 17.15 15.4906L3.21407 16.6953C2.57152 16.7451 1.95855 16.9859 1.454 17.3869C0.949448 17.7878 0.576395 18.3306 0.382824 18.9453C0.177815 19.5609 0.159908 20.2234 0.331365 20.8492C0.502822 21.4749 0.855948 22.0358 1.34611 22.4609L11.9188 31.6836C11.9835 31.7411 12.0316 31.8149 12.058 31.8974C12.0844 31.9799 12.0881 32.0679 12.0688 32.1523L8.89064 45.8656C8.74249 46.497 8.78475 47.1581 9.0121 47.7655C9.23944 48.3728 9.64167 48.8992 10.168 49.2781C10.6861 49.6604 11.307 49.8786 11.9504 49.9045C12.5938 49.9304 13.2302 49.7628 13.7774 49.4234L25.7563 42.1578C25.8267 42.1142 25.9078 42.0911 25.9906 42.0911C26.0734 42.0911 26.1546 42.1142 26.225 42.1578L38.2039 49.4234C38.7568 49.7619 39.3976 49.9291 40.0454 49.9037C40.6931 49.8784 41.3189 49.6618 41.8437 49.2812C42.3685 48.9006 42.7687 48.373 42.994 47.7652C43.2193 47.1573 43.2594 46.4963 43.1094 45.8656L39.9406 32.1476C39.9213 32.0632 39.925 31.9752 39.9514 31.8927C39.9778 31.8103 40.0259 31.7364 40.0906 31.6789L50.6633 22.4562C51.1509 22.0304 51.5017 21.4698 51.6714 20.8451C51.8411 20.2203 51.8223 19.5593 51.6172 18.9453Z"
        fill="#9D8DF1" />
</svg>