<svg width="25" height="26" viewBox="0 0 25 26" fill="none" xmlns="http://www.w3.org/2000/svg">
<path d="M14.0625 14.5625V20.8125C14.0625 21.6754 13.3629 22.375 12.5 22.375C11.6371 22.375 10.9375 21.6754 10.9375 20.8125V14.5625H4.6875C3.82456 14.5625 3.125 13.8629 3.125 13C3.125 12.1371 3.82456 11.4375 4.6875 11.4375H10.9375V5.1875C10.9375 4.32456 11.6371 3.625 12.5 3.625C13.3629 3.625 14.0625 4.32456 14.0625 5.1875V11.4375H20.3125C21.1754 11.4375 21.875 12.1371 21.875 13C21.875 13.8629 21.1754 14.5625 20.3125 14.5625H14.0625Z" fill="#FFFAFF"/>
</svg>
