<svg width="128" height="88" viewBox="0 0 128 88" fill="none" xmlns="http://www.w3.org/2000/svg">
<path d="M10.0269 8.5H57.9731C58.8167 8.5 59.5 9.18336 59.5 10.0257V77.9743C59.5 78.8166 58.8167 79.5 57.9731 79.5H10.0269C9.18334 79.5 8.5 78.8166 8.5 77.9743V10.0257C8.5 9.18336 9.18334 8.5 10.0269 8.5Z" fill="white" stroke="#C5C5C5"/>
<path fill-rule="evenodd" clip-rule="evenodd" d="M60.0001 8H8V59.9998H60.0001V8ZM50.0003 64.0002H11.9996V68.0001H49.9993L50.0003 64.0002ZM31.0002 70.0001H12.0001V74H31.0002V70.0001Z" fill="#C5C5C5"/>
<path d="M70.027 8.5H117.973C118.817 8.5 119.5 9.18336 119.5 10.0257V77.9743C119.5 78.8166 118.817 79.5 117.973 79.5H70.027C69.1835 79.5 68.5001 78.8166 68.5001 77.9743V10.0257C68.5001 9.18336 69.1835 8.5 70.027 8.5Z" fill="white" stroke="#C5C5C5"/>
<path fill-rule="evenodd" clip-rule="evenodd" d="M120 8H68.0001V59.9998H120V8ZM110 64.0002H71.9997V68.0001H109.999L110 64.0002ZM91.0004 70.0001H72.0003V74H91.0004V70.0001Z" fill="#C5C5C5"/>
</svg>
