<svg xmlns="http://www.w3.org/2000/svg" width="60" height="60" viewBox="0 0 60 60" fill="none">
  <path d="M30 20.3571C28.7337 20.3571 27.4797 20.6066 26.3098 21.0912C25.1399 21.5758 24.0769 22.286 23.1814 23.1815C22.286 24.0769 21.5757 25.1399 21.0911 26.3098C20.6065 27.4798 20.3571 28.7337 20.3571 30C20.3571 31.2663 20.6065 32.5202 21.0911 33.6902C21.5757 34.8601 22.286 35.9231 23.1814 36.8185C24.0769 37.7139 25.1399 38.4242 26.3098 38.9088C27.4797 39.3934 28.7337 39.6428 30 39.6428C32.5574 39.6428 35.0101 38.6269 36.8185 36.8185C38.6269 35.0101 39.6428 32.5574 39.6428 30C39.6428 27.4425 38.6269 24.9898 36.8185 23.1815C35.0101 21.3731 32.5574 20.3571 30 20.3571ZM23.5714 30C23.5714 29.1558 23.7377 28.3198 24.0608 27.5399C24.3838 26.7599 24.8573 26.0513 25.4543 25.4543C26.0512 24.8574 26.7599 24.3838 27.5399 24.0608C28.3198 23.7377 29.1558 23.5714 30 23.5714C30.8442 23.5714 31.6801 23.7377 32.4601 24.0608C33.24 24.3838 33.9487 24.8574 34.5457 25.4543C35.1426 26.0513 35.6161 26.7599 35.9392 27.5399C36.2623 28.3198 36.4285 29.1558 36.4285 30C36.4285 31.705 35.7513 33.3401 34.5457 34.5457C33.3401 35.7513 31.7049 36.4286 30 36.4286C28.295 36.4286 26.6599 35.7513 25.4543 34.5457C24.2487 33.3401 23.5714 31.705 23.5714 30ZM46.5214 47.9893L42.8186 46.3628C42.2915 46.1339 41.7183 46.0313 41.1446 46.0633C40.5708 46.0953 40.0126 46.261 39.5143 46.5471C38.5135 47.1257 37.875 48.1479 37.7485 49.2986L37.3028 53.3271C37.2579 53.732 37.0891 54.1131 36.8195 54.4183C36.5499 54.7236 36.1926 54.9382 35.7964 55.0328C31.9841 55.9416 28.0116 55.9416 24.1993 55.0328C23.8035 54.9379 23.4466 54.7231 23.1774 54.4178C22.9082 54.1126 22.7397 53.7317 22.695 53.3271L22.2493 49.305C22.1853 48.7389 21.9895 48.1958 21.6776 47.7191C21.3658 47.2424 20.9465 46.8454 20.4535 46.56C19.9611 46.2752 19.4085 46.1101 18.8405 46.0781C18.2725 46.0461 17.7049 46.148 17.1835 46.3757L13.4807 48.0021C13.1064 48.1666 12.6902 48.2106 12.2898 48.128C11.8893 48.0455 11.5245 47.8405 11.2457 47.5414C8.58055 44.6854 6.59731 41.2625 5.44498 37.53C5.32381 37.1377 5.32761 36.7174 5.45583 36.3273C5.58406 35.9373 5.83038 35.5967 6.16069 35.3528L9.43283 32.9357C9.89348 32.5973 10.268 32.1552 10.5262 31.6452C10.7843 31.1352 10.9188 30.5716 10.9188 30C10.9188 29.4284 10.7843 28.8648 10.5262 28.3548C10.268 27.8448 9.89348 27.4027 9.43283 27.0643L6.16069 24.6536C5.82996 24.4095 5.58336 24.0686 5.45511 23.6781C5.32687 23.2876 5.32332 22.8669 5.44498 22.4743C6.59969 18.745 8.58438 15.3258 11.25 12.4736C11.529 12.1749 11.894 11.9703 12.2944 11.8881C12.6948 11.806 13.1109 11.8503 13.485 12.015L17.1707 13.6371C17.6951 13.8628 18.2651 13.9627 18.835 13.9286C19.4049 13.8945 19.959 13.7275 20.4528 13.4409C20.9466 13.1544 21.3664 12.7562 21.6788 12.2782C21.9911 11.8003 22.1872 11.2559 22.2514 10.6886L22.7014 6.66428C22.7467 6.25489 22.9187 5.86986 23.1934 5.56292C23.468 5.25598 23.8317 5.04245 24.2335 4.95213C26.1214 4.53213 28.0478 4.30928 30.0278 4.28571C31.9607 4.30713 33.885 4.53213 35.7707 4.95213C36.173 5.04228 36.5371 5.25604 36.8118 5.56345C37.0866 5.87087 37.2583 6.25654 37.3028 6.66642L37.7507 10.6907C37.8473 11.5832 38.2698 12.4086 38.9372 13.0088C39.6047 13.6091 40.4702 13.9419 41.3678 13.9436C41.8671 13.9436 42.3621 13.8386 42.825 13.635L46.5107 12.0128C46.8848 11.8481 47.3009 11.8038 47.7013 11.886C48.1017 11.9681 48.4667 12.1727 48.7457 12.4714C51.4106 15.3238 53.3946 18.743 54.5485 22.4721C54.6699 22.8642 54.6665 23.2844 54.5386 23.6744C54.4108 24.0644 54.1649 24.4051 53.835 24.6493L50.5671 27.0643C49.635 27.75 49.0714 28.8407 49.0714 30C49.0714 31.1571 49.635 32.2478 50.5693 32.9357L53.8393 35.3486C54.5164 35.85 54.8035 36.7243 54.555 37.5278C53.4011 41.2566 51.418 44.6756 48.7543 47.5286C48.4755 47.8276 48.1106 48.0326 47.7102 48.1152C47.3098 48.1977 46.8957 48.1537 46.5214 47.9893ZM34.8493 47.565C35.3606 45.9636 36.4489 44.6095 37.9028 43.7657C38.8381 43.2268 39.8868 42.9148 40.9646 42.8549C42.0424 42.795 43.1193 42.9888 44.1085 43.4207L46.9885 44.685C48.8385 42.5431 50.2703 40.0732 51.21 37.4036L48.6621 35.5243C47.7947 34.8874 47.089 34.0536 46.6017 33.094C46.1145 32.1345 45.8595 31.074 45.8571 29.9978C45.8571 27.7971 46.9221 25.755 48.6578 24.4778L48.6621 24.4757L51.2057 22.5964C50.2654 19.9272 48.8328 17.4581 46.9821 15.3171L44.1257 16.5728L44.1214 16.575C43.2514 16.9607 42.315 17.1578 41.3657 17.1578C39.6776 17.1553 38.0496 16.5305 36.7932 15.403C35.5369 14.2755 34.7402 12.7244 34.5557 11.0464V11.0421L34.2064 7.91356C32.8279 7.65683 31.4299 7.51846 30.0278 7.49999C28.608 7.51785 27.1922 7.65621 25.7957 7.91356L25.4464 11.0443C25.3263 12.1126 24.9572 13.1379 24.3688 14.0377C23.7804 14.9374 22.9891 15.6866 22.0585 16.2249C21.1279 16.7633 20.084 17.0758 19.0107 17.1373C17.9374 17.1989 16.8646 17.0077 15.8785 16.5793L13.0157 15.3193C11.165 17.4602 9.73232 19.9293 8.79212 22.5986L11.3421 24.4778C12.2077 25.1153 12.9114 25.9473 13.3964 26.9067C13.8813 27.8661 14.134 28.9261 14.134 30.0011C14.134 31.0761 13.8813 32.136 13.3964 33.0954C12.9114 34.0548 12.2077 34.8868 11.3421 35.5243L8.79212 37.4057C9.73055 40.0792 11.1625 42.5527 13.0135 44.6978L15.8957 43.4336C16.8786 43.0033 17.9489 42.8102 19.0201 42.8697C20.0914 42.9293 21.1337 43.2399 22.0628 43.7764C22.9916 44.313 23.7815 45.0599 24.3692 45.9572C24.9568 46.8544 25.3258 47.8771 25.4464 48.9428V48.9536L25.7935 52.0907C28.5728 52.6371 31.4293 52.6371 34.2085 52.0907L34.5557 48.9471C34.6071 48.4757 34.7035 48.0107 34.8493 47.565Z"/>
</svg>