<svg width="24" height="24" viewBox="0 0 24 24" fill="none" xmlns="http://www.w3.org/2000/svg">
    <path
        d="M22.247 9.17821C22.1696 8.93232 22.0204 8.71522 21.8186 8.55483C21.6167 8.39444 21.3715 8.29811 21.1145 8.2782L15.5401 7.79633C15.5064 7.79302 15.4743 7.78063 15.447 7.76049C15.4198 7.74035 15.3985 7.71321 15.3855 7.68196L13.2077 2.49195C13.1068 2.25519 12.9386 2.05331 12.7239 1.91141C12.5092 1.7695 12.2575 1.69385 12.0001 1.69385C11.7428 1.69385 11.4911 1.7695 11.2764 1.91141C11.0617 2.05331 10.8935 2.25519 10.7927 2.49195L8.61484 7.68196C8.60179 7.71321 8.58052 7.74035 8.55328 7.76049C8.52604 7.78063 8.49386 7.79302 8.46015 7.79633L2.88578 8.2782C2.62876 8.29811 2.38357 8.39444 2.18175 8.55483C1.97993 8.71522 1.8307 8.93232 1.75328 9.17821C1.67127 9.42444 1.66411 9.68946 1.73269 9.93976C1.80128 10.1901 1.94253 10.4144 2.13859 10.5845L6.36765 14.2735C6.39355 14.2965 6.41278 14.3261 6.42334 14.359C6.43389 14.392 6.43538 14.4273 6.42765 14.461L5.1564 19.9463C5.09714 20.1989 5.11405 20.4633 5.20499 20.7063C5.29592 20.9492 5.45681 21.1598 5.66734 21.3113C5.8746 21.4643 6.12294 21.5515 6.3803 21.5619C6.63765 21.5722 6.89221 21.5052 7.11109 21.3695L11.9026 18.4632C11.9308 18.4458 11.9633 18.4365 11.9964 18.4365C12.0295 18.4365 12.062 18.4458 12.0902 18.4632L16.8817 21.3695C17.1029 21.5049 17.3592 21.5717 17.6183 21.5616C17.8774 21.5515 18.1277 21.4648 18.3376 21.3126C18.5475 21.1603 18.7076 20.9493 18.7977 20.7062C18.8879 20.463 18.9039 20.1986 18.8439 19.9463L17.5764 14.4591C17.5687 14.4254 17.5702 14.3902 17.5807 14.3572C17.5913 14.3242 17.6105 14.2946 17.6364 14.2716L21.8655 10.5826C22.0605 10.4122 22.2008 10.188 22.2687 9.93812C22.3366 9.68822 22.3291 9.42382 22.247 9.17821ZM21.122 9.7332L16.893 13.4223C16.7128 13.5791 16.5788 13.7821 16.5054 14.0094C16.4321 14.2367 16.4221 14.4797 16.4767 14.7123L17.7442 20.1995C17.7536 20.2363 17.7515 20.2752 17.7383 20.3108C17.7251 20.3465 17.7013 20.3773 17.6701 20.3991C17.642 20.4217 17.6073 20.4347 17.5712 20.4362C17.5351 20.4377 17.4995 20.4277 17.4695 20.4076L12.678 17.5013C12.4737 17.3772 12.2392 17.3115 12.0001 17.3115C11.7611 17.3115 11.5266 17.3772 11.3223 17.5013L6.53078 20.4076C6.50079 20.4277 6.46516 20.4377 6.42908 20.4362C6.393 20.4347 6.35834 20.4217 6.33015 20.3991C6.29901 20.3773 6.27524 20.3465 6.26201 20.3108C6.24879 20.2752 6.24672 20.2363 6.25609 20.1995L7.52359 14.7123C7.57816 14.4797 7.56823 14.2367 7.49488 14.0094C7.42153 13.7821 7.28754 13.5791 7.10734 13.4223L2.87828 9.7332C2.84935 9.70861 2.82858 9.67581 2.8187 9.63915C2.80883 9.60249 2.81031 9.56369 2.82296 9.52789C2.83243 9.49224 2.85296 9.46052 2.8816 9.43727C2.91023 9.41402 2.9455 9.40045 2.98234 9.39852L8.55765 8.91664C8.79633 8.89631 9.0249 8.81104 9.21858 8.67007C9.41226 8.52911 9.56367 8.33783 9.6564 8.11695L11.8342 2.92695C11.8494 2.89474 11.8734 2.86751 11.9034 2.84843C11.9334 2.82935 11.9683 2.81922 12.0039 2.81922C12.0395 2.81922 12.0744 2.82935 12.1044 2.84843C12.1344 2.86751 12.1584 2.89474 12.1736 2.92695L14.3439 8.11695C14.4363 8.3373 14.5872 8.52823 14.7801 8.66915C14.9731 8.81008 15.2009 8.89565 15.4389 8.91664L21.0142 9.39852C21.051 9.40045 21.0863 9.41402 21.115 9.43727C21.1436 9.46052 21.1641 9.49224 21.1736 9.52789C21.1867 9.56333 21.1888 9.60189 21.1796 9.63852C21.1704 9.67516 21.1503 9.70816 21.122 9.7332Z"
        fill="#9D8DF1" />
</svg>